<svg id="Laag_1" data-name="Laag 1" xmlns="http://www.w3.org/2000/svg" viewBox="0 0 125 60"><defs><style>.cls-1{fill:#009ad8;}.cls-2{fill:#fff;}</style></defs><title>logo</title><path class="cls-1" d="M9.74,10.05h9.59V22a26.37,26.37,0,0,1-8.59,1.33q-5.13,0-7.94-3T0,11.89Q0,6.51,3.07,3.51c2.05-2,4.91-3,8.6-3a18.59,18.59,0,0,1,4,.4,16.43,16.43,0,0,1,3.25,1L17,6.63A11.79,11.79,0,0,0,11.7,5.44,5,5,0,0,0,7.64,7.15,7.39,7.39,0,0,0,6.2,12a7.47,7.47,0,0,0,1.3,4.75,4.5,4.5,0,0,0,3.75,1.63,11.14,11.14,0,0,0,2.46-.25V14.69h-4Z"/><path class="cls-2" d="M31.82,23.36a9.28,9.28,0,0,1-6.68-2.28,8.65,8.65,0,0,1-2.37-6.52c0-2.9.73-5.14,2.2-6.69a8.23,8.23,0,0,1,6.29-2.33,8.35,8.35,0,0,1,6,2,7.7,7.7,0,0,1,2.12,5.85v2.64H28.77a2.93,2.93,0,0,0,1.06,2.27,4.15,4.15,0,0,0,2.71.82,13,13,0,0,0,2.88-.3,13.85,13.85,0,0,0,2.85-1V22.1a10.42,10.42,0,0,1-2.89,1A20.24,20.24,0,0,1,31.82,23.36ZM31.47,9.58a2.47,2.47,0,0,0-1.75.66,3.1,3.1,0,0,0-.83,2.07H34a3,3,0,0,0-.71-2A2.36,2.36,0,0,0,31.47,9.58Z"/><path class="cls-2" d="M56.05,17.77A4.88,4.88,0,0,1,54.16,22a8.9,8.9,0,0,1-5.41,1.41,23,23,0,0,1-3.32-.2,14.5,14.5,0,0,1-2.89-.75V17.65a17.94,17.94,0,0,0,3,1,12.46,12.46,0,0,0,2.94.4c1.29,0,1.93-.3,1.93-.88a1,1,0,0,0-.54-.82A24.09,24.09,0,0,0,46.76,16a7.8,7.8,0,0,1-3.31-2.21,5,5,0,0,1-.94-3.14,4.36,4.36,0,0,1,1.85-3.74A8.88,8.88,0,0,1,49.6,5.54a13.06,13.06,0,0,1,3.2.37A18.69,18.69,0,0,1,55.91,7L54.3,10.82a19.05,19.05,0,0,0-2.51-.9,8.24,8.24,0,0,0-2.15-.37c-1,0-1.46.24-1.46.71a.87.87,0,0,0,.51.75,25.28,25.28,0,0,0,2.94,1.27,11.64,11.64,0,0,1,2.69,1.46,4.38,4.38,0,0,1,1.31,1.68A5.91,5.91,0,0,1,56.05,17.77Z"/><path class="cls-2" d="M67.78,18.67a8.71,8.71,0,0,0,2.87-.6v4.34a11.51,11.51,0,0,1-2.28.73,12.82,12.82,0,0,1-2.55.22A5.6,5.6,0,0,1,61.5,21.9a6.58,6.58,0,0,1-1.32-4.51v-7.1H58.1V7.88L60.74,6l1.54-3.62h3.89V5.84H70.4v4.45H66.17V17A1.45,1.45,0,0,0,67.78,18.67Z"/><path class="cls-2" d="M85.93,23.06l-.75-2.14h-.35a4.75,4.75,0,0,1-2.07,1.81,7.24,7.24,0,0,1-3.12.63,5.85,5.85,0,0,1-4.43-1.65,6.47,6.47,0,0,1-1.58-4.65V5.84h5.94v9.41a5.4,5.4,0,0,0,.48,2.55,1.67,1.67,0,0,0,1.58.87,2.27,2.27,0,0,0,2.18-1.21,9.14,9.14,0,0,0,.66-4.08V5.84h5.94V23.06Z"/><path class="cls-2" d="M104.91,5.54a8.58,8.58,0,0,1,1.47.12l.34.06-.53,5.61a8.34,8.34,0,0,0-2-.19,3.84,3.84,0,0,0-2.82.89,3.49,3.49,0,0,0-.88,2.56v8.47H94.51V5.84h4.43l.92,2.75h.29a6,6,0,0,1,2.08-2.21A5,5,0,0,1,104.91,5.54Z"/><path class="cls-2" d="M117.43,23.36a9.27,9.27,0,0,1-6.68-2.28,8.66,8.66,0,0,1-2.38-6.52c0-2.9.74-5.14,2.21-6.69a8.21,8.21,0,0,1,6.29-2.33,8.35,8.35,0,0,1,6,2A7.74,7.74,0,0,1,125,13.41v2.64H114.38a3,3,0,0,0,1.05,2.27,4.2,4.2,0,0,0,2.72.82,13,13,0,0,0,2.88-.3,13.85,13.85,0,0,0,2.85-1V22.1a10.42,10.42,0,0,1-2.89,1A20.32,20.32,0,0,1,117.43,23.36Zm-.35-13.78a2.46,2.46,0,0,0-1.75.66,3.1,3.1,0,0,0-.83,2.07h5.1a3,3,0,0,0-.7-2A2.36,2.36,0,0,0,117.08,9.58Z"/><path class="cls-1" d="M20.7,40.64c0,3.71-1,6.56-3.06,8.57s-4.91,3-8.61,3H1.84V30H9.53q5.36,0,8.26,2.74T20.7,40.64Zm-6.23.21a7,7,0,0,0-1.21-4.53,4.47,4.47,0,0,0-3.67-1.47H7.84V47.29H9.18a4.86,4.86,0,0,0,4-1.58A7.69,7.69,0,0,0,14.47,40.85Z"/><path class="cls-2" d="M32.65,52.52A9.25,9.25,0,0,1,26,50.24a8.62,8.62,0,0,1-2.38-6.52c0-2.9.73-5.14,2.2-6.69a8.23,8.23,0,0,1,6.29-2.33,8.38,8.38,0,0,1,6,2,7.73,7.73,0,0,1,2.11,5.85v2.64H29.59a2.93,2.93,0,0,0,1.06,2.27,4.17,4.17,0,0,0,2.71.82,13,13,0,0,0,2.88-.3,14,14,0,0,0,2.85-1v4.27a10.31,10.31,0,0,1-2.89,1A20.2,20.2,0,0,1,32.65,52.52ZM32.3,38.74a2.48,2.48,0,0,0-1.76.66,3.1,3.1,0,0,0-.83,2.07h5.11a3,3,0,0,0-.71-2A2.34,2.34,0,0,0,32.3,38.74Z"/><path class="cls-2" d="M56.87,46.93A4.9,4.9,0,0,1,55,51.11a8.92,8.92,0,0,1-5.41,1.41,23.07,23.07,0,0,1-3.33-.2,14.68,14.68,0,0,1-2.89-.75V46.81a17.94,17.94,0,0,0,3,1,12.46,12.46,0,0,0,2.94.4c1.29,0,1.93-.3,1.93-.88a1,1,0,0,0-.54-.82,24.37,24.37,0,0,0-3.13-1.39,7.77,7.77,0,0,1-3.32-2.21,5,5,0,0,1-.94-3.14A4.36,4.36,0,0,1,45.18,36a8.9,8.9,0,0,1,5.25-1.33,13.18,13.18,0,0,1,3.2.37,19.81,19.81,0,0,1,3.1,1.08L55.12,40a18.91,18.91,0,0,0-2.5-.9,8.3,8.3,0,0,0-2.16-.37c-1,0-1.46.24-1.46.71a.87.87,0,0,0,.51.75,25.28,25.28,0,0,0,2.94,1.27,12,12,0,0,1,2.7,1.46,4.45,4.45,0,0,1,1.3,1.68A5.91,5.91,0,0,1,56.87,46.93Z"/><path class="cls-2" d="M60.05,30.71a2.5,2.5,0,0,1,.74-2,3.64,3.64,0,0,1,2.4-.65,3.59,3.59,0,0,1,2.42.67,2.46,2.46,0,0,1,.76,2c0,1.75-1.06,2.62-3.18,2.62S60.05,32.46,60.05,30.71Zm6.09,21.51H60.2V35h5.94Z"/><path class="cls-2" d="M86.54,35v2.87l-2.36.87a4.23,4.23,0,0,1,.49,2,5.2,5.2,0,0,1-2,4.32,9.37,9.37,0,0,1-5.83,1.53,7.56,7.56,0,0,1-1.52-.12,1.6,1.6,0,0,0-.22.74c0,.3.24.52.72.68a6,6,0,0,0,1.87.24h2.85q5.79,0,5.79,4.87A5.53,5.53,0,0,1,83.7,58c-1.79,1.16-4.92,1.74-8.15,1.74a8.43,8.43,0,0,1-5-1.22,3.89,3.89,0,0,1-2-3.52q0-3.08,3.83-4A3.43,3.43,0,0,1,71,49.89a2.37,2.37,0,0,1-.59-1.47A2.39,2.39,0,0,1,70.85,47a6.7,6.7,0,0,1,1.84-1.47,4.54,4.54,0,0,1-2.1-1.85,5.83,5.83,0,0,1-.77-3.07,5.29,5.29,0,0,1,1.91-4.36,8.48,8.48,0,0,1,5.48-1.55c.31,0,.85,0,1.62.1s1.34.14,1.7.2Zm-13,19.36a1.33,1.33,0,0,0,.79,1.18,4.26,4.26,0,0,0,2.11.45,9.19,9.19,0,0,0,3.46-.54c.86-.36,1.3-.82,1.3-1.39a1,1,0,0,0-.79-1,7,7,0,0,0-2.27-.28H75.84a2.81,2.81,0,0,0-1.62.45A1.31,1.31,0,0,0,73.56,54.36Zm1.87-13.72c0,1.76.61,2.64,1.84,2.64a1.53,1.53,0,0,0,1.31-.65,3.4,3.4,0,0,0,.46-2c0-1.79-.59-2.68-1.77-2.68S75.43,38.88,75.43,40.64Z"/><path class="cls-2" d="M100,52.22V42.83a5.35,5.35,0,0,0-.5-2.59,1.68,1.68,0,0,0-1.58-.88,2.31,2.31,0,0,0-2.18,1.2,9.2,9.2,0,0,0-.67,4.12v7.54H89.15V35h4.48l.75,2.13h.35a4.74,4.74,0,0,1,2.1-1.83,7.55,7.55,0,0,1,3.1-.6,5.88,5.88,0,0,1,4.44,1.65A6.48,6.48,0,0,1,106,41v11.2Z"/><path class="cls-1" d="M109.26,49.7a2.75,2.75,0,0,1,.83-2.16,3.41,3.41,0,0,1,2.4-.76,3.2,3.2,0,0,1,2.31.76,2.81,2.81,0,0,1,.81,2.16,2.76,2.76,0,0,1-.83,2.13,3.24,3.24,0,0,1-2.29.77,3.46,3.46,0,0,1-2.37-.76A2.72,2.72,0,0,1,109.26,49.7Z"/></svg>